HIERARCHY
ROOT pelvis
{
  OFFSET 0 100 0
  CHANNELS 6 Xposition Yposition Zposition Zrotation Xrotation Yrotation
  JOINT pelvis_right_femur
  {
    OFFSET -10.78128 -3.44521 -0.5502486
    CHANNELS 3 Zrotation Xrotation Yrotation
    JOINT right_femur_tibia
    {
      OFFSET -0.8047443 -44.0398 -0.1307829
      CHANNELS 3 Zrotation Xrotation Yrotation
      JOINT right_tibia_foot
      {
        OFFSET 3.006224 -47.83518 -5
        CHANNELS 3 Zrotation Xrotation Yrotation
        End Site
        {
          OFFSET 0 -5 15
        }
      }
    }
  }
  JOINT pelvis_left_femur
  {
    OFFSET 10.78128 -3.44521 -0.5502486
    CHANNELS 3 Zrotation Xrotation Yrotation
    JOINT left_femur_tibia
    {
      OFFSET 0.8047443 -44.0398 -0.1307829
      CHANNELS 3 Zrotation Xrotation Yrotation
      JOINT left_tibia_foot
      {
        OFFSET -4.370144 -48.10324 -4.275266
        CHANNELS 3 Zrotation Xrotation Yrotation
        End Site
        {
          OFFSET 0 -5 15
        }
      }
    }
  }
  JOINT pelvis_spine1
  {
    OFFSET 0 6.468898 -3.129235
    CHANNELS 3 Zrotation Xrotation Yrotation
    JOINT spine1
    {
      OFFSET 0 23.15396 4.99043
      CHANNELS 3 Zrotation Xrotation Yrotation
      JOINT spine2
      {
        OFFSET 0 20.79997 -5.064912
        CHANNELS 3 Zrotation Xrotation Yrotation
        JOINT neck
        {
          OFFSET 0 14.38658 9.616178
          CHANNELS 3 Zrotation Xrotation Yrotation
          End Site
          {
            OFFSET 0 20 0
          }
        }
      }
      JOINT right_manubrium
      {
        OFFSET -5.722621 16.35077 3.967754
        CHANNELS 3 Zrotation Xrotation Yrotation
        JOINT right_clavicle
        {
          OFFSET -13.16364 1.694482 -4.693211
          CHANNELS 3 Zrotation Xrotation Yrotation
          JOINT right_humerus
          {
            OFFSET -28.5034 -0.3100689 -2.792744
            CHANNELS 3 Zrotation Xrotation Yrotation
            JOINT right_radius
            {
              OFFSET -25.15693 0.02248979 -1.271978
              CHANNELS 3 Zrotation Xrotation Yrotation
              End Site
              {
                OFFSET -15 0 0
              }
            }
          }
        }
      }
      JOINT left_manubrium
      {
        OFFSET 5.722621 16.35077 3.967754
        CHANNELS 3 Zrotation Xrotation Yrotation
        JOINT left_clavicle
        {
          OFFSET 13.16364 1.694482 -4.693211
          CHANNELS 3 Zrotation Xrotation Yrotation
          JOINT left_humerus
          {
            OFFSET 29.39168 -1.063119 -2.237045
            CHANNELS 3 Zrotation Xrotation Yrotation
            JOINT left_radius
            {
              OFFSET 24.59957 -0.9528479 0.9047498
              CHANNELS 3 Zrotation Xrotation Yrotation
              End Site
              {
                OFFSET 15 -0 -0
              }
            }
          }
        }
      }
    }
  }
}
MOTION
Frames: 9
Frame Time: 0.0416666666667
0 103.5113 0 0.4822853 0.5833822 -0.1717338 4.943242 -17.48401 12.26125 -0 39.5107 -0 -4.529319 -19.85854 -2.211336 -7.320046 8.113542 -24.15997 -0 5.803144 -0 15.37579 -12.04533 29.98608 -3.274637 -3.83302 5.842759 2.765386 9.903607 -6.969342 1.802712 21.8329 6.512871 2.103325 -27.0832 10.91132 5.899069 -21.25616 12.07818 85.69918 36.34669 -17.60482 -0 0 16.34121 -4.164566 7.234841 4.146651 4.988453 -18.88539 -0.7788353 -92.64167 23.40399 21.97363 0 0 -17.31039 15.56199 14.55052 -2.215435
0.3439908 104.3307 1.517301 0.5257127 0.9140737 -0.304842 5.081291 -18.37811 12.1773 -0 38.20896 -0 -4.175802 -19.41383 -2.101284 -7.39443 8.293232 -23.87222 -0 5.828591 -0 15.67837 -12.25059 29.92816 -3.334372 -3.829602 5.943852 2.804634 9.922081 -7.000306 1.850023 21.6857 6.526501 2.086503 -27.19863 11.00902 5.833961 -21.19922 12.03689 85.88191 36.60586 -17.8865 -0 0 16.10379 -4.202578 7.432917 4.12556 5.06236 -19.04622 -0.738016 -92.10762 23.14173 21.47009 0 0 -18.3695 15.89268 14.05132 -2.497964
0.670469 104.8853 3.522762 0.4765482 1.380059 -0.312205 5.32386 -22.08845 10.29683 -0 32.77789 -0 -4.526614 -15.785 -1.867726 -7.29978 9.852123 -22.32835 -0 5.507118 -0 14.49156 -14.87439 28.5091 -3.413631 -3.420288 5.556791 2.907686 9.911612 -7.290601 1.742245 21.48803 6.695693 2.51694 -26.78587 10.62218 5.631461 -20.53276 11.82444 86.44621 36.37533 -19.00439 -0 0 14.93976 -5.390243 7.715432 4.291304 5.853433 -20.01517 -1.186807 -91.43694 22.93186 20.15925 0 0 -19.86538 15.27512 13.93754 -2.147839
0.9866376 105.2627 5.90721 0.4140147 1.822677 -0.2253112 5.506277 -24.78091 9.059997 -0 28.83863 -0 -4.687104 -13.22501 -1.667938 -7.246695 10.92045 -21.20311 -0 5.547764 -0 13.59402 -16.59454 27.40132 -3.430832 -3.147261 5.317461 2.988962 9.911037 -7.499654 1.672788 21.28897 6.82821 2.815498 -26.54883 10.38913 5.52649 -20.05753 11.67727 86.84123 36.3529 -19.82935 -0 0 14.14098 -6.160658 7.985258 4.379126 6.378464 -20.6808 -1.463569 -90.92535 22.73132 19.26382 0 0 -21.05122 14.89036 13.70881 -1.922585
1.300432 105.5053 8.707972 0.305974 2.486412 -0.03435784 5.794715 -27.6085 8.024558 -0 24.83213 -0 -4.73889 -10.67626 -1.411488 -7.220526 11.907 -20.09615 -0 5.961933 -0 12.6951 -18.15492 26.24063 -3.412533 -2.89658 5.139596 3.095182 9.913441 -7.711974 1.61467 20.99562 6.988773 3.125001 -26.43175 10.23025 5.519012 -19.58421 11.53263 87.19922 36.66814 -20.69566 -0 0 13.40751 -6.716114 8.319543 4.376142 6.851359 -21.29109 -1.661967 -90.43629 22.52359 18.52029 0 0 -22.37697 14.57211 13.27359 -1.707554
1.615614 105.644 11.93196 0.1209695 3.167716 0.2638952 6.131288 -30.2089 7.11684 -0 21.22709 -0 -4.87184 -8.264794 -1.154419 -7.158611 12.7861 -19.02825 -0 6.775756 -0 11.65788 -19.41665 24.95461 -3.300445 -2.653399 4.943846 3.19245 9.904401 -7.898347 1.56073 20.71393 7.143487 3.394762 -26.36065 10.11031 5.516483 -19.119 11.39481 87.56431 36.99858 -21.49937 -0 0 12.68758 -7.159751 8.624664 4.3825 7.221973 -21.81004 -1.830859 -90.01769 22.3541 17.92546 0 0 -23.55023 14.25832 12.82594 -1.454593
1.934941 105.722 15.60034 -0.1710697 3.829762 0.6712634 6.535772 -32.54539 6.284685 -0 18.04621 -0 -5.163131 -5.944343 -0.8969274 -7.025287 13.57466 -17.95787 -0 8.120833 -0 10.35679 -20.35131 23.43625 -3.056691 -2.404183 4.691745 3.275284 9.87938 -8.060729 1.500647 20.46527 7.291114 3.621562 -26.30863 10.00906 5.496652 -18.64079 11.26163 87.95738 37.26407 -22.24006 -0 0 11.93731 -7.536852 8.883385 4.427058 7.480454 -22.24166 -1.995132 -89.68623 22.24528 17.48182 0 0 -24.494 13.89101 12.41454 -1.110008
2.258777 105.7908 19.73609 -0.5901278 4.376043 1.179613 7.000737 -34.42762 5.488545 -0 15.4373 -0 -5.683484 -3.786165 -0.6554025 -6.780291 14.25857 -16.86232 -0 10.17814 -0 8.693151 -20.82921 21.60684 -2.635307 -2.15211 4.350483 3.329113 9.839963 -8.193856 1.425058 20.29077 7.417844 3.779737 -26.23569 9.904172 5.414486 -18.14554 11.13778 88.40241 37.30833 -22.89102 -0 0 11.12092 -7.915596 9.073731 4.555749 7.59808 -22.57866 -2.182415 -89.44815 22.19636 17.17803 0 0 -25.09628 13.43394 12.10669 -0.6457098
2.58505 105.9195 24.36198 -1.139032 4.696246 1.761475 7.513766 -35.59904 4.701956 -0 13.54217 -0 -6.474283 -1.906247 -0.4501944 -6.389905 14.79881 -15.72504 -0 13.23097 -0 6.602464 -20.66782 19.42364 -1.99432 -1.916509 3.90761 3.338428 9.799459 -8.294282 1.323394 20.22636 7.508533 3.845596 -26.09848 9.768688 5.232104 -17.63774 11.0335 88.91459 36.97731 -23.43171 -0 0 10.22297 -8.367405 9.187223 4.802187 7.54615 -22.81559 -2.418902 -89.31586 22.18615 17.01562 0 0 -25.24235 12.85799 11.95993 -0.0462774
